<?xml version="1.0" encoding="UTF-8"?>
<svg xmlns="http://www.w3.org/2000/svg" id="Icons" viewBox="0 0 60 60" width="512" height="512"><circle cx="30" cy="24" r="1"/><path d="M4,11v2a3,3,0,0,0,3,3H53a3,3,0,0,0,3-3V11a3,3,0,0,0-3-3H41.974A4.948,4.948,0,0,0,43,5a5.006,5.006,0,0,0-5-5,9,9,0,0,0-8,4.9A9,9,0,0,0,22,0a5.006,5.006,0,0,0-5,5,4.948,4.948,0,0,0,1.026,3H7A3,3,0,0,0,4,11Zm49-1a1,1,0,0,1,1,1v2a1,1,0,0,1-1,1H36V10H53ZM38,2a3,3,0,0,1,0,6H31.071A7.011,7.011,0,0,1,38,2Zm-4,8v4H26V10h8ZM22,2a7.011,7.011,0,0,1,6.929,6H22a3,3,0,0,1,0-6Zm0,8h2v4H7a1,1,0,0,1-1-1V11a1,1,0,0,1,1-1Z"/><path d="M7.958,32.961a3.014,3.014,0,0,0-.79,2.269L8.79,56.307A4.019,4.019,0,0,0,12.778,60H47.222a4.019,4.019,0,0,0,3.988-3.693L52.832,35.23A3,3,0,0,0,49.84,32H47.209l1.716-6.148a2,2,0,0,0-1.384-2.465L40,21.281V20a2,2,0,0,0-2-2H22a2,2,0,0,0-2,2v1.281l-7.544,2.107a2,2,0,0,0-1.382,2.461L12.791,32H10.16A3.014,3.014,0,0,0,7.958,32.961ZM33,58H27V34h6ZM26.142,32a3.981,3.981,0,0,1,7.716,0ZM47,25.311l-.769,2.756a3.9,3.9,0,0,1-1.982-3.524Zm-7-1.953,2.271.634a5.952,5.952,0,0,0,3.409,6.044L45.132,32H40ZM49.84,34a1,1,0,0,1,1,1.077L49.216,56.153A2.01,2.01,0,0,1,47.222,58H35V34ZM38,20v2.858A4,4,0,0,1,35.142,20ZM22,20h2.858A4,4,0,0,1,22,22.858Zm0,4.91A6.008,6.008,0,0,0,26.91,20h6.18A6.008,6.008,0,0,0,38,24.91V32H35.91a5.993,5.993,0,0,0-11.82,0H22Zm-5,2.653a5.958,5.958,0,0,0,.733-3.571L20,23.358V32H14.867l-.549-1.963A5.94,5.94,0,0,0,17,27.563Zm-1.244-3.019a3.9,3.9,0,0,1-1.984,3.525L13,25.313ZM25,34V58H12.778a2.01,2.01,0,0,1-1.994-1.847L9.163,35.077a1,1,0,0,1,1-1.077Z"/></svg>
