<svg id="Capa_1" enable-background="new 0 0 609.624 609.624" height="512" viewBox="0 0 609.624 609.624" width="512" xmlns="http://www.w3.org/2000/svg"><g><g id="Page-1_56_"><g id="_x30_57---Dry-Cleaning-Service"><path id="Shape_171_" d="m304.812 60.964c-5.611 0-10.16 4.549-10.16 10.16v20.321h-60.962c-89.739.106-162.46 72.827-162.566 162.566v314.972c0 22.446 18.196 40.642 40.642 40.642h386.094c22.446 0 40.642-18.196 40.642-40.642v-314.972c-.106-89.739-72.827-162.46-162.566-162.566h-60.962v-11.451c20.45-5.28 33.447-25.344 29.906-46.165s-22.44-35.46-43.485-33.684c-21.045 1.777-37.222 19.377-37.223 40.497 0 5.611 4.549 10.16 10.16 10.16s10.16-4.549 10.16-10.16c0-11.223 9.098-20.321 20.321-20.321s20.321 9.098 20.321 20.321-9.099 20.322-20.322 20.322zm71.123 50.802c78.525.084 142.161 63.72 142.245 142.245v314.972c0 11.223-9.098 20.321-20.321 20.321h-386.094c-11.223 0-20.321-9.098-20.321-20.321v-314.972c.084-78.525 63.72-142.161 142.245-142.245z"/><path id="Shape_170_" d="m197.874 164.041-48.109 24.05c-11.131 5.534-19.099 15.878-21.611 28.053-5.974 28.449-16.033 104.154-16.379 291.765-.017 11.244 9.067 20.382 20.311 20.432h40.642v20.321c0 11.223 9.098 20.321 20.321 20.321h87.237c5.386-.018 10.547-2.157 14.367-5.954l10.16-10.16 10.16 10.16c3.819 3.797 8.981 5.936 14.367 5.954h87.237c11.223 0 20.321-9.098 20.321-20.321v-20.321h40.642c11.248-.045 20.338-9.185 20.321-20.432-.345-187.611-10.404-263.327-16.379-291.765-2.512-12.174-10.48-22.518-21.611-28.053l-48.109-24.05-31.761-23.826c-7.044-5.258-15.595-8.108-24.385-8.128h-101.606c-8.79.02-17.34 2.87-24.385 8.128zm-25.147 343.98-40.642-.061c.264-139.929 5.883-216.518 11.115-257.637l24.791 64.325c3.134 8.18 4.739 16.865 4.735 25.624v167.749zm121.925 26.284-14.367 14.357h-87.237v-208.389c.002-11.251-2.064-22.406-6.096-32.909l-36.11-93.699c1.929-3.158 4.697-5.719 7.996-7.397l34.21-17.1v40.357c-.022 5.376 2.112 10.536 5.924 14.326l21.703 21.601-11.664 17.395c-4.848 7.428-4.317 17.143 1.311 23.999l84.331 103.199v124.26zm171.761-284.002c5.233 41.119 10.851 117.728 11.126 257.718h-40.642v-167.748c-.008-8.75 1.587-17.428 4.704-25.604zm-49.837-20.778v-40.357l34.19 17.09c3.294 1.68 6.061 4.236 7.996 7.387l-36.09 93.75c-4.025 10.495-6.092 21.639-6.096 32.879v208.389h-87.237l-14.367-14.367v-124.252l84.331-103.148c5.666-6.931 6.152-16.745 1.199-24.202l-11.522-17.273 21.672-21.57c3.813-3.791 5.946-8.951 5.924-14.326zm-44.431-69.812 24.111 18.096v51.645l-21.642 21.642c-6.84 6.847-7.919 17.562-2.581 25.635l11.552 17.273-59.123 72.291zm-19.173-7.306-48.16 208.796-48.14-208.796zm-67.83 213.917-59.164-72.311 11.593-17.273c5.345-8.066 4.261-18.782-2.591-25.614l-21.611-21.601v-51.716l24.131-18.106z"/><g clip-rule="evenodd" fill-rule="evenodd"><path id="Path_134_" d="m223.529 457.219h40.641c5.611 0 10.16-4.549 10.16-10.16s-4.549-10.16-10.16-10.16h-40.641c-5.611 0-10.16 4.549-10.16 10.16s4.549 10.16 10.16 10.16z"/><path id="Path_133_" d="m386.095 436.898h-40.642c-5.611 0-10.16 4.549-10.16 10.16s4.549 10.16 10.16 10.16h40.642c5.611 0 10.16-4.549 10.16-10.16s-4.548-10.16-10.16-10.16z"/></g></g></g></g></svg>