<?xml version="1.0" encoding="iso-8859-1"?>
<!-- Generator: Adobe Illustrator 19.0.0, SVG Export Plug-In . SVG Version: 6.00 Build 0)  -->
<svg version="1.1" id="Capa_1" xmlns="http://www.w3.org/2000/svg" xmlns:xlink="http://www.w3.org/1999/xlink" x="0px" y="0px"
	 viewBox="0 0 496 496" style="enable-background:new 0 0 496 496;" xml:space="preserve">
<g>
	<g>
		<g>
			<path d="M184,247.896h64v24h16v-40h-96v112H64V168.584L206.144,67.056c5.8-4.128,13.92-4.128,19.72,0L368,168.584v55.312h16
				v-44.128c4.48,2.656,9.504,4.128,14.76,4.128h4.152c16.032,0,29.088-13.056,29.088-29.096c0-9.416-4.584-18.288-12.272-23.736
				L249.68,10.616c-19.816-14.016-47.544-14.016-67.36,0L12.272,131.064C4.584,136.512,0,145.392,0,154.8
				c0,16.04,13.056,29.096,29.096,29.096h4.152c5.248,0,10.272-1.472,14.752-4.128v180.128h176v-16h-40V247.896z M48,159.896v0.456
				l-7.152,5.104c-2.232,1.6-4.864,2.44-7.608,2.44h-4.144C21.872,167.896,16,162.024,16,154.8c0-4.24,2.064-8.232,5.52-10.68
				L191.568,23.68c14.36-10.184,34.496-10.184,48.856,0L410.48,144.12c3.464,2.448,5.52,6.448,5.52,10.68
				c0,7.224-5.872,13.096-13.096,13.096h-4.152c-2.744,0-5.376-0.84-7.608-2.44L384,160.352v-0.456h-0.64L235.16,54.04
				c-5.632-4.016-12.256-6.144-19.16-6.144s-13.528,2.128-19.16,6.144L48.64,159.896H48z"/>
			<path d="M168,143.896c0,26.472,21.528,48,48,48s48-21.528,48-48s-21.528-48-48-48S168,117.424,168,143.896z M208,174.76
				c-11.192-2.904-19.96-11.672-22.864-22.864H208V174.76z M208,135.896h-22.864c2.904-11.192,11.672-19.96,22.864-22.864V135.896z
				 M224,113.032c11.192,2.904,19.96,11.672,22.864,22.864H224V113.032z M224,151.896h22.864
				c-2.904,11.192-11.672,19.96-22.864,22.864V151.896z"/>
			<path d="M368,239.896c-70.576,0-128,57.424-128,128s57.424,128,128,128s128-57.424,128-128S438.576,239.896,368,239.896z
				 M368,479.896c-61.76,0-112-50.24-112-112s50.24-112,112-112s112,50.24,112,112S429.76,479.896,368,479.896z"/>
			<path d="M448.472,315.52l-13.408,8.736C443.52,337.24,448,352.328,448,367.896c0,44.112-35.888,80-80,80
				c-18.544,0-36.624-6.496-50.904-18.28l-10.184,12.344c17.136,14.144,38.832,21.936,61.088,21.936c52.936,0,96-43.064,96-96
				C464,349.216,458.624,331.104,448.472,315.52z"/>
			<path d="M368,287.896c18.56,0,36.648,6.496,50.92,18.304l10.2-12.328c-17.136-14.168-38.84-21.976-61.12-21.976
				c-52.936,0-96,43.064-96,96c0,19.912,6.04,39.008,17.472,55.224l13.08-9.216C293.032,400.4,288,384.488,288,367.896
				C288,323.784,323.888,287.896,368,287.896z"/>
			<path d="M400,351.896v-4c0-14.064-10.464-25.632-24-27.592v-16.408h-16v16.408c-13.536,1.96-24,13.528-24,27.592
				c0,15.44,12.56,28,28,28h8c6.616,0,12,5.384,12,12c0,6.616-5.384,12-12,12h-8c-6.616,0-12-5.384-12-12v-4h-16v4
				c0,14.064,10.464,25.632,24,27.592v16.408h16v-16.408c13.536-1.96,24-13.528,24-27.592c0-15.44-12.56-28-28-28h-8
				c-6.616,0-12-5.384-12-12c0-6.616,5.384-12,12-12h8c6.616,0,12,5.384,12,12v4H400z"/>
		</g>
	</g>
</g>
<g>
</g>
<g>
</g>
<g>
</g>
<g>
</g>
<g>
</g>
<g>
</g>
<g>
</g>
<g>
</g>
<g>
</g>
<g>
</g>
<g>
</g>
<g>
</g>
<g>
</g>
<g>
</g>
<g>
</g>
</svg>
