<svg height="512" viewBox="0 0 128 128" width="512" xmlns="http://www.w3.org/2000/svg"><path d="m87.331 61.532-6.023 6.023a8.556 8.556 0 0 0 -8.557-8.526h-22.6a7.282 7.282 0 0 0 -5.184 2.148l-13.846 13.847-2.033-2.033a1.751 1.751 0 0 0 -2.475 0l-8.85 8.851a1.748 1.748 0 0 0 0 2.474l25.921 25.921a1.748 1.748 0 0 0 2.474 0l8.851-8.85a1.751 1.751 0 0 0 0-2.475l-1.545-1.545 6.116-6.116a2.232 2.232 0 0 1 1.59-.658h18.63a9.243 9.243 0 0 0 6.579-2.726l23.86-23.86a1.749 1.749 0 0 0 0-2.475 16.216 16.216 0 0 0 -22.908 0zm-42.41 44.993-23.446-23.446 6.376-6.379 23.449 23.449zm38.979-21.132a5.767 5.767 0 0 1 -4.1 1.7h-18.63a5.711 5.711 0 0 0 -4.065 1.683l-6.114 6.115-17.369-17.418 13.821-13.822a3.812 3.812 0 0 1 2.71-1.122h22.6a5.059 5.059 0 0 1 5.034 5.561 5.259 5.259 0 0 1 -5.327 4.556h-11.04a1.75 1.75 0 0 0 0 3.5h15.522a1.752 1.752 0 0 0 1.238-.513l11.626-11.626a12.717 12.717 0 0 1 16.634-1.153z"/><path d="m46.893 34.357a17.107 17.107 0 1 0 17.107-17.107 17.127 17.127 0 0 0 -17.107 17.107zm30.714 0a13.607 13.607 0 1 1 -13.607-13.607 13.623 13.623 0 0 1 13.607 13.607z"/><path d="m62.25 25.268v1.037a4.942 4.942 0 0 0 .9 9.8h1.7a1.447 1.447 0 1 1 0 2.894h-4.05a1.75 1.75 0 0 0 0 3.5h1.45v.946a1.75 1.75 0 0 0 3.5 0v-1.035a4.942 4.942 0 0 0 -.9-9.8h-1.7a1.447 1.447 0 1 1 0-2.893h4.05a1.75 1.75 0 0 0 0-3.5h-1.45v-.946a1.75 1.75 0 0 0 -3.5 0z"/></svg>