<svg id="_x31__px" height="512" viewBox="0 0 24 24" width="512" xmlns="http://www.w3.org/2000/svg"><path d="m.77 15c-.229 0-.435-.158-.487-.39-.188-.832-.283-1.71-.283-2.61 0-6.617 5.383-12 12-12 3.8 0 7.409 1.83 9.653 4.895.163.223.115.536-.108.699s-.537.115-.699-.108c-2.056-2.809-5.364-4.486-8.846-4.486-6.065 0-11 4.935-11 11 0 .827.087 1.631.258 2.39.061.27-.108.537-.378.598-.037.008-.074.012-.11.012z"/><path d="m12 24c-3.8 0-7.409-1.83-9.653-4.895-.163-.223-.115-.536.108-.699.222-.164.536-.115.699.108 2.056 2.809 5.364 4.486 8.846 4.486 6.065 0 11-4.935 11-11 0-.838-.089-1.641-.266-2.384-.064-.269.102-.539.371-.602.271-.065.539.102.602.371.194.819.293 1.699.293 2.615 0 6.617-5.383 12-12 12z"/><path d="m2.55 22c-.272 0-.495-.218-.5-.492l-.05-3c-.002-.134.049-.263.144-.359.093-.095.222-.149.356-.149h3c.276 0 .5.224.5.5s-.224.5-.5.5h-2.492l.042 2.492c.005.276-.215.503-.491.508-.003 0-.006 0-.009 0z"/><path d="m21.5 6h-3c-.276 0-.5-.224-.5-.5s.224-.5.5-.5h2.5v-2.5c0-.276.224-.5.5-.5s.5.224.5.5v3c0 .276-.224.5-.5.5z"/><path d="m12 17c-.143 0-.279-.061-.374-.168-2.85-3.206-2.85-6.458 0-9.664.189-.214.558-.214.747 0 2.85 3.206 2.85 6.458 0 9.664-.094.107-.23.168-.373.168zm0-8.725c-1.995 2.502-1.995 4.947 0 7.449 1.995-2.501 1.995-4.947 0-7.449z"/><path d="m11.971 17c-.015 0-.03 0-.045-.002-4.017-.364-6.178-2.648-6.424-6.788-.009-.143.044-.282.146-.383.1-.101.247-.149.382-.146 1.778.106 3.225.57 4.301 1.379.221.166.265.479.099.7-.166.22-.479.265-.7.099-.801-.603-1.869-.982-3.18-1.13.368 3.247 2.161 4.974 5.466 5.273.275.025.478.268.453.543-.024.26-.242.455-.498.455z"/><path d="m12.029 17c-.256 0-.474-.195-.498-.455-.025-.275.178-.518.453-.543 3.305-.299 5.099-2.026 5.466-5.273-1.312.148-2.379.528-3.18 1.13-.221.167-.534.122-.7-.099s-.122-.534.099-.7c1.076-.81 2.522-1.273 4.301-1.379.139-.009.282.044.383.146.101.101.154.241.146.383-.246 4.14-2.407 6.424-6.424 6.788-.015.002-.031.002-.046.002z"/></svg>